<svg viewBox="0 0 400 225" xmlns="http://www.w3.org/2000/svg">
  <defs>
    <linearGradient id="bgGradient1" x1="0%" y1="0%" x2="100%" y2="100%">
      <stop offset="0%" style="stop-color:#000000;stop-opacity:1" />
      <stop offset="100%" style="stop-color:#0a0a0a;stop-opacity:1" />
    </linearGradient>
    
    <linearGradient id="chartGreen" x1="0%" y1="0%" x2="100%" y2="100%">
      <stop offset="0%" style="stop-color:#00FFAE;stop-opacity:0.8" />
      <stop offset="100%" style="stop-color:#00D4AA;stop-opacity:0.6" />
    </linearGradient>
    
    <pattern id="subtleGrid" width="30" height="30" patternUnits="userSpaceOnUse">
      <path d="M 30 0 L 0 0 0 30" fill="none" stroke="#00FFAE" stroke-opacity="0.05" stroke-width="1"/>
    </pattern>
  </defs>
  
  <!-- Background -->
  <rect width="400" height="225" fill="url(#bgGradient1)"/>
  <rect width="400" height="225" fill="url(#subtleGrid)" opacity="0.3"/>
  
  <!-- Main Content Area -->
  <rect x="30" y="30" width="340" height="165" rx="12" fill="#1a1a1a" stroke="#00FFAE" stroke-width="1" stroke-opacity="0.2"/>
  
  <!-- Simple Price Display -->
  <text x="50" y="60" fill="#00FFAE" font-family="monospace" font-size="14" font-weight="bold">BTC/USDT</text>
  <text x="50" y="85" fill="#00FFAE" font-family="monospace" font-size="24" font-weight="bold">$94,750</text>
  <text x="50" y="105" fill="#00FFAE" font-family="monospace" font-size="12">+5.7% ↗</text>
  
  <!-- Simple Chart Representation -->
  <g transform="translate(50, 125)">
    <rect x="0" y="0" width="280" height="50" fill="none" stroke="#00FFAE" stroke-opacity="0.1" stroke-width="1"/>
    <path d="M20 35 L50 28 L80 25 L110 20 L140 15 L170 18 L200 12 L230 8 L260 10" stroke="#00FFAE" stroke-width="3" fill="none" opacity="0.8"/>
  </g>
  
  <!-- Streamer Avatar -->
  <circle cx="320" cy="70" r="20" fill="url(#chartGreen)" stroke="#00FFAE" stroke-width="2"/>
  <text x="320" y="78" fill="#000" font-size="16" text-anchor="middle">👑</text>
  
  <!-- Clean Status Indicators -->
  <circle cx="350" cy="50" r="3" fill="#00FFAE" opacity="0.8">
    <animate attributeName="opacity" values="0.8;0.3;0.8" dur="2s" repeatCount="indefinite"/>
  </circle>
</svg>