<svg width="140" height="28" viewBox="0 0 140 28" fill="none" xmlns="http://www.w3.org/2000/svg">
<rect x="0.311111" y="0.311111" width="27.3778" height="27.3778" rx="7.15556" stroke="white" stroke-width="0.622222"/>
<path d="M12.6514 20.123C13.0828 20.123 13.4497 20.2277 13.749 20.4033C13.8279 20.4371 14.5784 20.8121 14.6533 20.8555H14.6543C15.4491 21.191 15.8613 21.9825 15.8613 22.7666C15.8613 23.2552 15.6719 23.7486 15.3438 24.1191C15.072 24.4252 14.5813 24.79 13.7822 24.79C13.3259 24.79 12.9699 24.671 12.6982 24.5117C12.6175 24.4773 11.8639 24.0995 11.7939 24.0586C11.4759 23.9247 11.2458 23.73 11.0898 23.5537C10.7617 23.1832 10.5743 22.6898 10.5742 22.2012C10.5742 21.6798 10.7613 21.166 11.0889 20.792C11.356 20.4864 11.8449 20.1231 12.6514 20.123ZM12.6514 20.4619C11.4827 20.4621 10.9121 21.3589 10.9121 22.2012C10.9122 22.962 11.4828 23.8856 12.6514 23.8857C13.8201 23.8857 14.3905 22.9621 14.3906 22.2012C14.3906 21.3589 13.8202 20.4619 12.6514 20.4619ZM13.1143 3.20996C14.3474 3.20996 15.4874 3.49911 16.4482 4.00293C16.5245 4.03908 16.6002 4.07723 16.6748 4.11621C16.751 4.15232 16.8259 4.19057 16.9004 4.22949C16.9765 4.26556 17.0516 4.30292 17.126 4.3418L17.3525 4.45508C19.2659 5.36573 20.5332 7.10572 20.5332 9.14453C20.5332 11.716 18.9335 13.1118 17.3867 14.4619C16.6337 15.1189 15.9216 15.7404 15.3984 16.4844C14.8635 17.2458 14.8174 17.6075 14.8174 19.1084V19.4473H12.5098L11.3789 18.8818V17.2373C11.3789 15.2561 12.5284 13.96 13.6396 12.707C14.8078 11.3903 15.9111 10.1462 15.9111 8.09961C15.9111 7.12188 15.5981 6.36359 15.0146 5.86426C14.6899 5.78125 14.3301 5.7383 13.9365 5.73828C13.0909 5.73828 12.4051 5.99816 11.9023 6.28906C12.4382 6.70083 12.7187 7.27574 12.7188 7.97656C12.7188 9.12562 11.7999 9.99219 10.583 9.99219C10.2216 9.99211 9.87972 9.90033 9.58496 9.72754C9.50708 9.6948 9.43218 9.65659 9.35938 9.61426C9.28161 9.58214 9.20649 9.5442 9.13379 9.50195C9.05583 9.46919 8.9801 9.43104 8.90723 9.38867C8.82933 9.35593 8.75446 9.31772 8.68164 9.27539C8.4472 9.17709 8.23377 9.03336 8.05469 8.84863C7.67019 8.45211 7.46682 7.90325 7.4668 7.26172C7.4668 6.22791 8.05433 5.19722 9.0791 4.43457C10.1406 3.64486 11.5738 3.20997 13.1143 3.20996ZM13.1133 3.54883C9.97087 3.54901 7.80566 5.39926 7.80566 7.26172C7.80573 8.42932 8.57019 9.08789 9.45312 9.08789C10.501 9.08785 11.249 8.36922 11.249 7.41113C11.249 6.66278 10.8899 6.09365 10.1416 5.73438C10.7404 5.28539 11.6383 4.83404 12.8057 4.83398C15.111 4.83398 16.2499 6.18355 16.25 8.09961C16.25 12.3365 11.7178 13.4309 11.7178 17.2373V18.543H13.3467C13.3467 17.0454 13.3884 16.5806 13.9912 15.7236C15.6335 13.388 19.0634 12.2028 19.0635 8.5791C19.0635 5.69743 16.3802 3.54883 13.1133 3.54883Z" fill="white"/>
<path d="M70.2769 20.7279C67.8892 20.7279 66.0207 18.6249 66.0207 14.4168C66.0207 10.2087 67.61 8.16817 69.962 8.16817C71.0546 8.16817 71.6581 8.67215 71.9486 9.53802C72.3291 10.671 72.2485 12.183 73.7927 12.183C74.5949 12.183 75.129 11.5142 75.129 10.6483C75.129 9.19508 72.9194 7.37052 69.8365 7.37052C66.1013 7.37052 63.0259 9.76917 63.0259 14.7578C63.0259 19.7465 67.0046 21.6203 69.8683 21.6203C72.732 21.6203 74.5743 20.313 75.5132 18.1777L74.6923 17.9219C73.9558 19.4737 72.3272 20.7279 70.2788 20.7279H70.2769ZM58.6235 8.58121C57.4466 7.77408 56.1122 7.37052 54.6185 7.37052C52.4951 7.37052 50.7503 8.10375 49.3841 9.57023C48.2071 10.8662 47.6187 12.4596 47.6187 14.3524C47.6187 16.9462 48.5426 18.9223 50.3942 20.2808C51.6124 21.1732 52.9805 21.6203 54.493 21.6203C56.5732 21.6203 58.2881 20.8776 59.6318 19.3884C60.85 18.0489 61.461 16.4024 61.461 14.4471C61.461 11.8552 60.5145 9.8999 58.6235 8.58121ZM54.5867 20.8227C51.9591 20.781 50.6341 18.6665 50.6135 14.4793C50.6341 10.2921 51.9385 8.18901 54.5229 8.16817C57.1092 8.21175 58.4118 10.2713 58.4324 14.3524C58.4118 18.6457 57.128 20.8018 54.5848 20.8227H54.5867ZM121.401 7.36862C117.784 7.36862 114.403 9.76727 114.403 14.7578C114.403 19.7484 118.607 21.6184 121.433 21.6184C124.812 21.6184 126.336 19.9019 127.078 18.1758L126.257 17.92C125.521 19.4718 124.089 20.726 121.844 20.726C119.598 20.726 117.505 18.2857 117.419 14.8886H127.503V14.2482C127.503 10.7601 125.389 7.36862 121.401 7.36862ZM124.494 14L117.402 14.0038V13.7953C117.402 10.1898 119.104 8.17386 121.3 8.17386C123.497 8.17386 124.494 10.4096 124.494 13.7953V14ZM42.03 13.4145C40.2983 12.6945 37.519 11.8476 37.519 10.1784C37.519 8.6911 39.29 8.16817 40.9617 8.16817C42.7197 8.16817 44.7962 9.19129 44.7962 11.0784V11.1655H45.5759V7.18105H44.785L44.6613 8.2648C43.6717 7.66987 42.1724 7.37241 40.7406 7.37241C37.8188 7.37241 35.4668 8.56984 35.4668 11.0045C35.4668 13.4391 37.474 14.4774 39.5205 15.3831C41.5671 16.2887 44.3708 17.0712 44.3708 18.5187C44.3708 20.1008 42.864 20.8227 41.0348 20.8227C38.293 20.8227 36.3195 19.3448 36.3195 16.9026V16.6468H35.4668V21.6184H36.2577L36.3814 20.5404C37.5246 21.2395 39.3481 21.6184 40.898 21.6184C43.2894 21.6184 46.4567 20.8227 46.4567 17.7609C46.4567 14.8867 43.7636 14.1326 42.0319 13.4126L42.03 13.4145ZM101.873 20.601C101.133 20.601 100.57 19.9587 100.57 18.5794V12.2493C100.565 8.9772 98.2689 7.37241 94.9723 7.37241C91.8875 7.37241 89.4905 9.11361 89.4905 10.7203C89.4905 11.6923 90.1352 12.1849 90.8286 12.1849C92.371 12.1849 92.2904 10.6729 92.6709 9.53991C92.9632 8.67215 93.7522 8.16817 94.8448 8.16817C96.5803 8.16817 97.8809 9.29361 97.8584 11.4838V13.1133C92.624 13.1341 89.0931 15.0363 89.0931 17.9807V18.3369C89.0931 20.4021 90.6412 21.6203 93.1169 21.6203C95.4633 21.6203 97.2062 20.2031 97.8903 18.7196C98.162 20.6332 99.5452 21.6203 101.059 21.6203C102.714 21.6203 103.507 20.7677 104.011 20.224L103.605 19.7048C103.232 20.1141 102.525 20.601 101.873 20.601ZM97.8584 16.8552C97.5005 18.3217 96.2055 20.313 94.3894 20.313C93.0644 20.313 91.9006 19.5646 91.9006 17.8897V17.4407C91.9006 16.0178 92.8658 14.7067 94.4213 14.324C95.2403 14.1326 96.3854 14.0265 97.8584 14.0056V16.8552ZM111.35 20.601C110.111 20.601 108.816 19.7977 108.816 17.3497V8.41448H113.579V7.61682H108.816V3.26666H108.027C108.027 5.6691 106.101 7.61682 103.724 7.61682H102.802V8.41448H106.103C106.103 9.82032 106.097 16.8249 106.103 16.8135C106.103 19.9038 107.908 21.6222 110.231 21.6222C112.409 21.6222 113.487 20.5802 113.991 20.0364L113.584 19.5172C113.211 19.9265 112.43 20.6029 111.348 20.6029L111.35 20.601ZM85.8977 7.53156C83.0397 7.53156 81.4729 9.79001 81.0456 10.8037L80.9444 7.72482H75.9705V8.71005H78.3975V20.3168H75.9705V21.3039H84.5427V20.3168H81.1093V14.197C81.1093 11.4346 83.3658 8.93551 84.226 8.93551C85.2062 8.93551 85.0094 10.8472 86.5912 10.8472C87.2846 10.8472 88.0099 10.2163 88.0099 9.38076C88.0099 8.54521 87.339 7.53346 85.8977 7.53346V7.53156ZM135.577 13.4145C133.845 12.6945 131.066 11.8476 131.066 10.1784C131.066 8.6911 132.837 8.16817 134.509 8.16817C136.267 8.16817 138.343 9.19129 138.343 11.0784V11.1655H139.123V7.18105H138.332L138.208 8.2648C137.219 7.66987 135.72 7.37241 134.288 7.37241C131.364 7.37241 129.012 8.56984 129.012 11.0045C129.012 13.4391 131.019 14.4774 133.066 15.3831C135.112 16.2887 137.916 17.0712 137.916 18.5187C137.916 20.1008 136.409 20.8227 134.58 20.8227C131.838 20.8227 129.865 19.3448 129.865 16.9026V16.6468H129.01V21.6184H129.801L129.925 20.5404C131.068 21.2395 132.892 21.6184 134.441 21.6184C136.833 21.6184 140 20.8227 140 17.7609C140 14.8867 137.307 14.1326 135.575 13.4126L135.577 13.4145Z" fill="white"/>
</svg>
