<svg width="150" height="30" viewBox="0 0 150 30" fill="none" xmlns="http://www.w3.org/2000/svg">
<rect x="0.333333" y="0.333333" width="29.3333" height="29.3333" rx="7.66667" stroke="#1C2024" stroke-width="0.666667"/>
<path d="M13.5557 21.5604C14.0179 21.5604 14.4107 21.673 14.7314 21.8611C14.8174 21.8981 15.6244 22.3008 15.7012 22.3455C16.5526 22.705 16.994 23.5524 16.9941 24.3924C16.9941 24.9158 16.7919 25.4446 16.4404 25.8416C16.1493 26.1696 15.623 26.5603 14.7666 26.5604C14.2775 26.5604 13.8956 26.4332 13.6045 26.2625C13.5165 26.2248 12.7101 25.8207 12.6357 25.7772C12.2951 25.6337 12.0489 25.4249 11.8818 25.2361C11.5302 24.8391 11.3291 24.3104 11.3291 23.7869C11.3291 23.2283 11.5298 22.6778 11.8809 22.2772C12.1672 21.9497 12.6913 21.5604 13.5557 21.5604ZM13.5557 21.9227C12.3034 21.9227 11.6914 22.8845 11.6914 23.7869C11.6915 24.6022 12.3034 25.5926 13.5557 25.5926C14.8076 25.5924 15.4189 24.6021 15.4189 23.7869C15.4189 22.8846 14.8077 21.9229 13.5557 21.9227ZM14.0508 3.43927C15.372 3.43927 16.5935 3.74905 17.623 4.28888L18.5918 4.77325H18.5928C20.6426 5.749 22 7.61337 22 9.79767C22 12.5527 20.2861 14.0484 18.6289 15.4949C17.8222 16.1988 17.0595 16.8649 16.499 17.6619C15.9259 18.4778 15.875 18.8646 15.875 20.4725V20.8358H13.4033L12.1914 20.2303V18.4686C12.1914 16.3459 13.4237 14.9575 14.6143 13.6151C15.8659 12.2043 17.0479 10.8713 17.0479 8.67853C17.0479 7.6308 16.7122 6.81808 16.0869 6.28302C15.739 6.19409 15.3534 6.14826 14.9316 6.14825C14.0255 6.14825 13.2906 6.42638 12.752 6.7381C13.3264 7.17934 13.627 7.79555 13.627 8.54669C13.6269 9.77776 12.6426 10.7059 11.3389 10.7059C10.9517 10.7058 10.5854 10.6078 10.2695 10.4227C10.186 10.3876 10.1054 10.347 10.0273 10.3016C9.94388 10.2671 9.86318 10.2258 9.78516 10.1805C9.70172 10.1454 9.62097 10.1047 9.54297 10.0594C9.4597 10.0244 9.37961 9.98354 9.30176 9.93829C9.05057 9.83298 8.82175 9.67919 8.62988 9.48126C8.21771 9.05636 8 8.46767 8 7.78009C8.00008 6.67253 8.62968 5.56883 9.72754 4.75177C10.8648 3.90562 12.4003 3.4393 14.0508 3.43927ZM14.0508 3.80255C10.6837 3.80255 8.36342 5.78456 8.36328 7.78009C8.36328 9.03109 9.18198 9.73701 10.1279 9.73712C11.2507 9.73712 12.0527 8.96679 12.0527 7.94025C12.0526 7.13847 11.6671 6.52924 10.8652 6.14435C11.5068 5.66315 12.4696 5.1795 13.7207 5.1795C16.1907 5.1796 17.4111 6.6255 17.4111 8.67853C17.4111 13.2181 12.5547 14.3902 12.5547 18.4686V19.867H14.3008C14.3008 18.2625 14.3445 17.7656 14.9902 16.8475C16.7497 14.3448 20.4245 13.0747 20.4248 9.1922C20.4248 6.10483 17.5509 3.80275 14.0508 3.80255Z" fill="#1C2024"/>
<path d="M75.2965 22.2085C72.7383 22.2085 70.7364 19.9552 70.7364 15.4466C70.7364 10.9379 72.4391 8.75162 74.9592 8.75162C76.1298 8.75162 76.7764 9.2916 77.0877 10.2193C77.4953 11.4333 77.4089 13.0532 79.0635 13.0532C79.9229 13.0532 80.4952 12.3366 80.4952 11.4089C80.4952 9.85188 78.1278 7.89699 74.8246 7.89699C70.8227 7.89699 67.5276 10.467 67.5276 15.812C67.5276 21.157 71.7906 23.1646 74.8588 23.1646C77.927 23.1646 79.9009 21.7639 80.9069 19.4761L80.0274 19.2021C79.2382 20.8646 77.4933 22.2085 75.2985 22.2085H75.2965ZM62.8108 9.19416C61.5498 8.32938 60.1201 7.89699 58.5197 7.89699C56.2447 7.89699 54.3752 8.6826 52.9114 10.2538C51.6504 11.6423 51.0198 13.3496 51.0198 15.3775C51.0198 18.1566 52.0098 20.2739 53.9937 21.7294C55.2989 22.6856 56.7647 23.1646 58.3852 23.1646C60.6141 23.1646 62.4514 22.3689 63.8911 20.7733C65.1963 19.3381 65.8509 17.574 65.8509 15.479C65.8509 12.702 64.8369 10.607 62.8108 9.19416ZM58.4856 22.31C55.6704 22.2653 54.2507 19.9999 54.2286 15.5136C54.2507 11.0273 55.6483 8.77395 58.4173 8.75162C61.1883 8.79831 62.5839 11.0049 62.606 15.3775C62.5839 19.9775 61.2084 22.2877 58.4836 22.31H58.4856ZM130.073 7.89496C126.197 7.89496 122.575 10.4649 122.575 15.812C122.575 21.159 127.079 23.1626 130.107 23.1626C133.727 23.1626 135.36 21.3234 136.155 19.4741L135.275 19.2C134.486 20.8626 132.952 22.2065 130.547 22.2065C128.141 22.2065 125.898 19.5918 125.806 15.952H136.611V15.2659C136.611 11.5287 134.346 7.89496 130.073 7.89496ZM133.386 15L125.788 15.004V14.7807C125.788 10.9176 127.611 8.75771 129.964 8.75771C132.318 8.75771 133.386 11.1531 133.386 14.7807V15ZM45.032 14.3727C43.1766 13.6013 40.1988 12.6939 40.1988 10.9055C40.1988 9.3119 42.0963 8.75162 43.8874 8.75162C45.7709 8.75162 47.9958 9.84782 47.9958 11.8697V11.9631H48.8311V7.69399H47.9838L47.8512 8.85515C46.791 8.21773 45.1846 7.89902 43.6505 7.89902C40.52 7.89902 38 9.18198 38 11.7905C38 14.3991 40.1506 15.5115 42.3433 16.4819C44.536 17.4522 47.54 18.2906 47.54 19.8415C47.54 21.5366 45.9256 22.31 43.9658 22.31C41.0281 22.31 38.9136 20.7266 38.9136 18.1099V17.8359H38V23.1626H38.8474L38.9799 22.0075C40.2048 22.7566 42.1586 23.1626 43.8192 23.1626C46.3814 23.1626 49.7749 22.31 49.7749 19.0295C49.7749 15.95 46.8894 15.1421 45.034 14.3707L45.032 14.3727ZM109.149 22.0725C108.356 22.0725 107.754 21.3843 107.754 19.9065V13.1242C107.748 9.61843 105.288 7.89902 101.756 7.89902C98.4507 7.89902 95.8825 9.76459 95.8825 11.486C95.8825 12.5274 96.5732 13.0552 97.3162 13.0552C98.9688 13.0552 98.8824 11.4353 99.2901 10.2213C99.6033 9.2916 100.449 8.75162 101.619 8.75162C103.479 8.75162 104.872 9.95744 104.848 12.3041V14.0499C99.2399 14.0723 95.4568 16.1104 95.4568 19.265V19.6466C95.4568 21.8593 97.1154 23.1646 99.768 23.1646C102.282 23.1646 104.149 21.6462 104.882 20.0567C105.173 22.107 106.655 23.1646 108.278 23.1646C110.051 23.1646 110.9 22.2511 111.44 21.6685L111.005 21.1123C110.605 21.5508 109.848 22.0725 109.149 22.0725ZM104.848 18.0592C104.465 19.6304 103.077 21.7639 101.131 21.7639C99.7117 21.7639 98.4648 20.9621 98.4648 19.1676V18.6865C98.4648 17.1619 99.4989 15.7572 101.166 15.3471C102.043 15.1421 103.27 15.0284 104.848 15.0061V18.0592ZM119.304 22.0725C117.976 22.0725 116.589 21.2118 116.589 18.589V9.01552H121.691V8.16089H116.589V3.5H115.744C115.744 6.07404 113.679 8.16089 111.133 8.16089H110.145V9.01552H113.681C113.681 10.5218 113.675 18.0267 113.681 18.0145C113.681 21.3255 115.615 23.1667 118.105 23.1667C120.438 23.1667 121.593 22.0502 122.133 21.4676L121.697 20.9113C121.298 21.3498 120.46 22.0745 119.302 22.0745L119.304 22.0725ZM92.0332 8.06954C88.971 8.06954 87.2923 10.4893 86.8345 11.5754L86.726 8.2766H81.3968V9.3322H83.9972V21.768H81.3968V22.8256H90.5814V21.768H86.9027V15.2111C86.9027 12.2513 89.3204 9.57377 90.242 9.57377C91.2922 9.57377 91.0814 11.622 92.7761 11.622C93.5191 11.622 94.2962 10.9461 94.2962 10.0508C94.2962 9.15559 93.5773 8.07157 92.0332 8.07157V8.06954ZM145.261 14.3727C143.406 13.6013 140.428 12.6939 140.428 10.9055C140.428 9.3119 142.325 8.75162 144.117 8.75162C146 8.75162 148.225 9.84782 148.225 11.8697V11.9631H149.06V7.69399H148.213L148.08 8.85515C147.02 8.21773 145.414 7.89902 143.88 7.89902C140.747 7.89902 138.227 9.18198 138.227 11.7905C138.227 14.3991 140.378 15.5115 142.57 16.4819C144.763 17.4522 147.767 18.2906 147.767 19.8415C147.767 21.5366 146.153 22.31 144.193 22.31C141.255 22.31 139.141 20.7266 139.141 18.1099V17.8359H138.225V23.1626H139.072L139.205 22.0075C140.43 22.7566 142.384 23.1626 144.044 23.1626C146.606 23.1626 150 22.31 150 19.0295C150 15.95 147.114 15.1421 145.259 14.3707L145.261 14.3727Z" fill="#1C2024"/>
</svg>
